<svg width="100" height="100" viewBox="0 0 100 100" fill="none" xmlns="http://www.w3.org/2000/svg">
<circle cx="50" cy="50" r="50" fill="#F6E7A8"/>
<path fill-rule="evenodd" clip-rule="evenodd" d="M50.5 48.125C47.3931 48.125 44.875 45.6069 44.875 42.5C44.875 39.3931 47.3931 36.875 50.5 36.875C53.6069 36.875 56.125 39.3931 56.125 42.5C56.125 45.6069 53.6069 48.125 50.5 48.125ZM50.5 33.125C45.3231 33.125 41.125 37.3212 41.125 42.5C41.125 47.6787 45.3231 51.875 50.5 51.875C55.6769 51.875 59.875 47.6787 59.875 42.5C59.875 37.3212 55.6769 33.125 50.5 33.125ZM50.5 74.375C47.3819 74.3919 31.75 50.3394 31.75 42.5C31.75 32.1462 40.1444 23.75 50.5 23.75C60.8556 23.75 69.25 32.1462 69.25 42.5C69.25 50.2344 53.5694 74.3919 50.5 74.375ZM50.5 20C38.0744 20 28 30.0744 28 42.5C28 51.9087 46.7594 80.0206 50.5 80C54.1825 80.0206 73 51.7812 73 42.5C73 30.0744 62.9256 20 50.5 20Z" fill="#1F1F1F"/>
</svg>
