<svg width="100" height="100" viewBox="0 0 100 100" fill="none" xmlns="http://www.w3.org/2000/svg">
<circle cx="50" cy="50" r="50" fill="#C7DDB5"/>
<path d="M52.1783 27L50.4289 30.1848C46.2587 37.7672 42.0907 45.3461 37.921 52.9282L34.2461 49.2525L32.98 51.3582C29.2342 57.6025 25.4878 63.8497 21.7419 70.0962L20 73H23.3864H80L78.8537 70.3248C76.9358 65.8493 75.0179 61.3718 73.0998 56.8961L71.9835 54.292L68.0165 58.2599C63.2864 48.9203 58.5506 39.5805 53.8191 30.241L52.1783 27ZM52.0397 35.2131C53.9825 39.0479 55.9262 42.8814 57.8685 46.7159L56.3851 47.9898L52.0135 44.243L47.6419 47.9898L45.8588 46.4574C47.9191 42.7094 49.9787 38.9608 52.0397 35.2131ZM52.0135 49.2937L56.3851 53.0406L59.6516 50.2417C61.6968 54.2795 63.7426 58.3172 65.7876 62.3552L66.9826 64.7195L70.6874 61.0138C71.8513 63.7302 73.0147 66.4468 74.1787 69.1632H26.7728C29.5173 64.5873 32.262 60.0136 35.0066 55.4385L38.82 59.2528L40.0524 57.016C41.3584 54.6414 42.6653 52.2678 43.9708 49.8932L47.6419 53.0406L52.0135 49.2937Z" fill="black"/>
</svg>
