<svg width="100" height="100" viewBox="0 0 100 100" fill="none" xmlns="http://www.w3.org/2000/svg">
<circle cx="50" cy="50" r="50" fill="#C8E7DF"/>
<path d="M68.7222 29.5455C69.3263 29.5455 69.9057 29.306 70.3329 28.8798C70.76 28.4536 71 27.8755 71 27.2727C71 26.67 70.76 26.0919 70.3329 25.6657C69.9057 25.2394 69.3263 25 68.7222 25H32.2778C31.6737 25 31.0943 25.2394 30.6671 25.6657C30.24 26.0919 30 26.67 30 27.2727C30 27.8755 30.24 28.4536 30.6671 28.8798C31.0943 29.306 31.6737 29.5455 32.2778 29.5455H34.6672C34.9997 33.7182 36.3596 42.6136 41.9424 47.7273C36.0543 53.4341 34.8562 65.3045 34.6171 70.4545H32.2778C31.6737 70.4545 31.0943 70.694 30.6671 71.1202C30.24 71.5464 30 72.1245 30 72.7273C30 73.33 30.24 73.9081 30.6671 74.3343C31.0943 74.7606 31.6737 75 32.2778 75H68.7222C69.3263 75 69.9057 74.7606 70.3329 74.3343C70.76 73.9081 71 73.33 71 72.7273C71 72.1245 70.76 71.5464 70.3329 71.1202C69.9057 70.694 69.3263 70.4545 68.7222 70.4545H66.3829C66.1438 65.3091 64.9457 53.4386 59.0576 47.7273C64.6404 42.6091 66.0003 33.7136 66.3328 29.5455H68.7222ZM54.0989 45.7409C53.737 45.9414 53.4368 46.2365 53.2304 46.5945C53.024 46.9525 52.9192 47.3599 52.9274 47.7728C52.9356 48.1857 53.0565 48.5886 53.2769 48.9382C53.4973 49.2877 53.8091 49.5708 54.1786 49.7568C59.7296 52.5477 61.4675 64.1 61.8206 70.4545H39.1794C39.5234 64.0909 41.2704 52.5477 46.8214 49.7568C47.1909 49.5708 47.5027 49.2877 47.7231 48.9382C47.9435 48.5886 48.0644 48.1857 48.0726 47.7728C48.0807 47.3599 47.976 46.9525 47.7696 46.5945C47.5632 46.2365 47.263 45.9414 46.9011 45.7409C41.1178 42.5386 39.6282 33.7364 39.2432 29.5455H61.7568C61.3718 33.7364 59.8822 42.5386 54.0989 45.7409ZM50.5 52.2727C50.5 52.2727 57.3333 57.7273 57.3333 60.4545V68.1818H43.6667V60.4545C43.6667 57.7273 50.5 52.2727 50.5 52.2727Z" fill="black"/>
</svg>
