<svg width="100" height="100" viewBox="0 0 100 100" fill="none" xmlns="http://www.w3.org/2000/svg">
<circle cx="50" cy="50" r="50" fill="#B7D4EA"/>
<path d="M80 50C80 34.0616 67.5056 20.9918 51.7964 20.06C51.4727 20.0244 51.1489 20 50.8177 20C50.7204 20 50.6231 20.0094 50.5258 20.0131C50.3518 20.0094 50.1778 20 50 20C33.4581 20 20 33.4579 20 50C20 66.5421 33.4581 80 50 80C50.1759 80 50.3518 79.9888 50.5258 79.985C50.6231 79.9888 50.7204 80 50.8177 80C51.1471 80 51.4708 79.9775 51.7964 79.94C67.5056 79.0082 80 65.9384 80 50ZM74.418 59.6575C73.387 59.3575 70.7972 58.707 66.2275 58.1689C66.6055 55.5797 66.8132 52.8442 66.8132 50C66.8132 47.7576 66.6841 45.5865 66.4446 43.496C72.2343 42.8023 74.7717 41.9305 74.9401 41.8705L74.244 39.9019C75.5445 43.0123 76.265 46.4227 76.265 50C76.265 53.4085 75.6063 56.6652 74.418 59.6575ZM36.7534 50C36.7534 47.902 36.8918 45.8528 37.1463 43.8823C40.1796 44.1204 43.8099 44.2985 48.0726 44.3379V57.3477C43.9203 57.387 40.3742 57.5558 37.3896 57.7864C36.9779 55.3134 36.7534 52.698 36.7534 50ZM51.8095 23.9991C56.3978 25.3322 60.3275 31.7143 62.0864 40.1756C59.2571 40.4006 55.8514 40.5675 51.8095 40.605V23.9991ZM48.0745 24.0441V40.6031C44.0775 40.5637 40.6549 40.3987 37.7788 40.1794C39.5752 31.823 43.5348 25.4878 48.0745 24.0441ZM48.0745 61.0862V75.9521C43.8398 74.606 40.1104 69.0057 38.1699 61.4799C40.9618 61.2737 44.259 61.1256 48.0745 61.0862ZM51.8095 76.0009V61.0862C55.6662 61.1237 58.9465 61.2774 61.7047 61.493C59.7979 69.1182 56.0909 74.7597 51.8095 76.0009ZM51.8095 57.3495V44.3397C56.0966 44.3004 59.7025 44.1185 62.6965 43.871C62.9416 45.8453 63.0763 47.8964 63.0763 49.9981C63.0763 52.7017 62.8593 55.3228 62.4607 57.7976C59.5135 57.5577 55.9824 57.3889 51.8095 57.3495ZM73.5554 38.3945C72.9903 38.5707 70.6287 39.2438 65.8945 39.8025C64.8391 34.1816 62.9304 29.3763 60.4491 25.9059C66.1527 28.3901 70.8065 32.8373 73.5573 38.3945H73.5554ZM41.0423 25.3097C37.9884 28.8213 35.4978 33.8741 34.1355 39.8475C29.8971 39.3882 27.3559 38.8463 26.3398 38.6007C29.3058 32.4698 34.5864 27.6589 41.0404 25.3115L41.0423 25.3097ZM24.9513 42.1011C25.6718 42.2961 28.3963 42.9767 33.4637 43.5373C33.1737 45.6128 33.0146 47.7745 33.0146 50C33.0146 52.8292 33.2691 55.5497 33.7313 58.1257C29.3806 58.5963 26.7047 59.1607 25.5052 59.4494C24.3694 56.5133 23.7388 53.3298 23.7388 49.9981C23.7388 47.2477 24.1654 44.5928 24.9532 42.0992L24.9513 42.1011ZM27.1407 62.9104C28.5011 62.6217 30.9375 62.1792 34.5434 61.8024C35.9637 67.0577 38.2728 71.5049 41.0423 74.6903C35.1291 72.538 30.2077 68.3176 27.1407 62.9104ZM60.4472 74.0904C62.6834 70.9687 64.4517 66.7652 65.552 61.8568C69.2608 62.2824 71.5887 62.783 72.762 63.0792C69.9551 67.9464 65.6362 71.833 60.4472 74.0904Z" fill="black"/>
</svg>
