<svg width="100" height="100" viewBox="0 0 100 100" fill="none" xmlns="http://www.w3.org/2000/svg">
<circle cx="50" cy="50" r="50" fill="#F4D2B8"/>
<path d="M75 71.2238V73H25V71.2274C25 70.7714 25.1805 70.3339 25.5019 70.0111C25.8233 69.6883 26.2593 69.5065 26.7143 69.5055H28.1976C28.1924 69.4478 28.19 69.3898 28.1904 69.3319V67.7293C28.1914 67.2739 28.3723 66.8374 28.6936 66.5153C29.0149 66.1933 29.4504 66.012 29.9047 66.011H31.3844V52.9266H30.2765C29.7462 52.9266 29.2376 52.7154 28.8626 52.3396C28.4877 51.9637 28.277 51.454 28.277 50.9225C28.277 50.3909 28.4877 49.8812 28.8626 49.5054C29.2376 49.1295 29.7462 48.9184 30.2765 48.9184H69.8426C70.3729 48.9184 70.8815 49.1295 71.2565 49.5054C71.6314 49.8812 71.8421 50.3909 71.8421 50.9225C71.8421 51.454 71.6314 51.9637 71.2565 52.3396C70.8815 52.7154 70.3729 52.9266 69.8426 52.9266H68.7888V66.011H70.0953C70.5496 66.012 70.9851 66.1933 71.3064 66.5153C71.6277 66.8374 71.8086 67.2739 71.8096 67.7293V69.3319C71.8098 69.3899 71.8062 69.4479 71.7988 69.5055H73.2857C73.7401 69.5065 74.1756 69.6878 74.4968 70.0098C74.8181 70.3319 74.999 70.7684 75 71.2238ZM68.7924 45.7458C68.7924 40.7741 66.822 36.0061 63.3147 32.4905C59.8073 28.975 55.0504 27 50.0902 27C45.1301 27 40.3731 28.975 36.8658 32.4905C33.3584 36.0061 31.388 40.7741 31.388 45.7458H68.7924ZM35.6323 66.011H39.6348V54.9343C39.6348 54.4023 39.4239 53.892 39.0486 53.5159C38.6733 53.1397 38.1643 52.9284 37.6335 52.9284C37.1028 52.9284 36.5938 53.1397 36.2185 53.5159C35.8432 53.892 35.6323 54.4023 35.6323 54.9343V66.011ZM43.9115 54.9668V66.011H47.914V54.9668C47.914 54.4348 47.7031 53.9246 47.3278 53.5484C46.9525 53.1723 46.4435 52.9609 45.9127 52.9609C45.382 52.9609 44.873 53.1723 44.4977 53.5484C44.1223 53.9246 43.9115 54.4348 43.9115 54.9668ZM52.1907 54.9958V66.011H56.1932V54.9958C56.1932 54.4638 55.9823 53.9535 55.607 53.5774C55.2317 53.2012 54.7227 52.9899 54.1919 52.9899C53.6612 52.9899 53.1522 53.2012 52.7768 53.5774C52.4015 53.9535 52.1907 54.4638 52.1907 54.9958ZM60.4699 55.0247V66.011H64.4724V55.0247C64.4724 54.4927 64.2615 53.9825 63.8862 53.6063C63.5109 53.2301 63.0019 53.0188 62.4711 53.0188C61.9404 53.0188 61.4313 53.2301 61.056 53.6063C60.6807 53.9825 60.4699 54.4927 60.4699 55.0247Z" fill="black"/>
</svg>
