<svg width="100" height="100" viewBox="0 0 100 100" fill="none" xmlns="http://www.w3.org/2000/svg">
<circle cx="50" cy="50" r="50" fill="#D8CFE8"/>
<path d="M33.6326 73.7252V62.6562C28.134 58.6862 25 52.9784 25 46.8736C25 35.3641 36.2149 26 50 26C63.7851 26 75 35.3641 75 46.8735C75 58.3826 63.7851 67.7469 50 67.7469C48.3667 67.7469 46.7222 67.6103 45.1026 67.3404L33.6326 73.7252ZM50 29.3632C38.0695 29.3632 28.3632 37.2184 28.3632 46.8735C28.3632 52.1074 31.2367 57.0308 36.2479 60.3795L36.9951 60.8787V68.0037L44.5193 63.8161L45.1166 63.9279C46.7274 64.2301 48.3701 64.3838 49.9999 64.3838C61.9307 64.3838 71.6367 56.5289 71.6367 46.8735C71.6368 37.2184 61.9309 29.3632 50 29.3632Z" fill="#030303"/>
</svg>
