<svg width="100" height="100" viewBox="0 0 100 100" fill="none" xmlns="http://www.w3.org/2000/svg">
<circle cx="50" cy="50" r="50" fill="#EFC8D7"/>
<path d="M71.4956 56.2889L64.7959 51.9053L67.3755 47.1762C67.9976 45.9953 68.3236 44.681 68.3253 43.3463V35.8494C68.3305 33.7414 67.7199 31.6778 66.5687 29.9119C65.4174 28.1461 63.7755 26.7549 61.8446 25.9092C59.9137 25.0635 57.7779 24.8001 55.6993 25.1513C53.6208 25.5025 51.6901 26.4531 50.1443 27.8863L52.4088 30.3308C53.4799 29.3404 54.8167 28.6841 56.2553 28.4424C57.694 28.2006 59.1719 28.3839 60.5079 28.9698C61.8439 29.5557 62.9799 30.5186 63.7766 31.7406C64.5733 32.9626 64.9962 34.3906 64.9933 35.8494V43.3463C64.993 44.1235 64.8068 44.8893 64.4503 45.5799L60.3982 53.009L69.6713 59.0767C70.2834 59.4773 70.7857 60.0245 71.1325 60.6686C71.4794 61.3127 71.6597 62.0333 71.6572 62.7649V68.336H64.1603V71.668H74.9892V62.7648C74.9926 61.4797 74.6747 60.2142 74.0646 59.0833C73.4545 57.9523 72.5714 56.9917 71.4956 56.2889Z" fill="black"/>
<path d="M56.5018 59.6209L49.8021 55.2373L52.3816 50.5082C53.0038 49.3273 53.3297 48.013 53.3314 46.6783V39.1813C53.3293 36.3078 52.1874 33.5524 50.1562 31.5196C48.1251 29.4869 45.3706 28.3429 42.497 28.3385C36.5289 28.3385 31.6736 33.2027 31.6736 39.1813V46.6783C31.6673 48.0124 31.9897 49.3275 32.6123 50.5074L35.2058 55.2621L28.5451 59.6209C27.4706 60.3226 26.5883 61.2816 25.9783 62.4108C25.3683 63.5399 25.0499 64.8036 25.0521 66.087L25 75H59.9953V66.0968C59.9987 64.8117 59.6809 63.5462 59.0708 62.4153C58.4606 61.2843 57.5776 60.3237 56.5018 59.6209ZM56.6634 71.668H28.3513L28.3836 66.0968C28.3811 65.3652 28.5615 64.6446 28.9083 64.0005C29.2551 63.3564 29.7574 62.8092 30.3696 62.4086L39.6035 56.3664L35.5373 48.9119C35.1849 48.2203 35.0025 47.4545 35.0056 46.6783V39.1813C35.0056 37.193 35.7954 35.2862 37.2014 33.8802C38.6073 32.4743 40.5142 31.6844 42.5025 31.6844C44.4908 31.6844 46.3977 32.4743 47.8036 33.8802C49.2096 35.2862 49.9994 37.193 49.9994 39.1813V46.6783C49.9991 47.4555 49.8129 48.2213 49.4564 48.9119L45.4043 56.341L54.6774 62.4087C55.2895 62.8093 55.7918 63.3565 56.1387 64.0006C56.4855 64.6447 56.6659 65.3653 56.6634 66.0969V71.668Z" fill="black"/>
</svg>
