<svg width="100" height="100" viewBox="0 0 100 100" fill="none" xmlns="http://www.w3.org/2000/svg">
<circle cx="50" cy="50" r="50" fill="#E8D7B8"/>
<path fill-rule="evenodd" clip-rule="evenodd" d="M72.4719 25C73.868 25 75 26.1319 75 27.5281V50C75 51.3962 73.868 52.5281 72.4719 52.5281C71.0758 52.5281 69.9438 51.3962 69.9438 50V33.6315L33.6314 69.9438H50C51.3962 69.9438 52.5281 71.0758 52.5281 72.4719C52.5281 73.868 51.3962 75 50 75H27.5281C26.8576 75 26.2146 74.7337 25.7404 74.2596C25.2663 73.7854 25 73.1421 25 72.4719V50C25 48.6037 26.1319 47.4719 27.5281 47.4719C28.9243 47.4719 30.0562 48.6037 30.0562 50V66.3685L66.3685 30.0562H50C48.6037 30.0562 47.4719 28.9243 47.4719 27.5281C47.4719 26.1319 48.6037 25 50 25H72.4719Z" fill="black"/>
</svg>
