<svg width="60" height="60" viewBox="0 0 60 60" fill="none" xmlns="http://www.w3.org/2000/svg">
<path d="M11.6251 5.03545C10.6757 5.09015 10.4569 5.2894 10.3358 6.20753C10.2264 7.05142 10.2577 14.7441 10.3749 15.045C10.4374 15.213 11.7228 16.2366 14.7663 18.5534L16.4345 19.8231V28.8091L16.4306 37.795L15.2742 39.0061C13.3012 41.0729 12.0041 42.4677 11.5626 42.999C11.168 43.4756 11.1836 43.3545 11.1602 45.8823L11.1406 48.0702L10.0076 48.0897C8.71052 48.1132 8.71834 48.1092 8.28467 48.4804L8.04244 48.6836L8.01509 50.7425C7.98384 52.7702 7.99946 53.536 8.0776 54.0243C8.15965 54.5596 8.41751 54.8409 8.8668 54.8917C9.73804 54.9932 14.3365 55.0128 32.1403 54.9932L50.5615 54.9698L50.7802 54.7393C50.9248 54.5869 51.0147 54.4502 51.0498 54.3369C51.0889 54.2079 51.1045 53.6141 51.1162 51.9849C51.1436 48.8281 51.0967 48.4921 50.6162 48.2538C50.4208 48.1561 49.7918 48.0936 48.9792 48.0897C48.7525 48.0897 48.4517 48.078 48.3072 48.0624L48.0415 48.0389V46.7184C48.0415 45.1322 47.979 43.671 47.9047 43.4991C47.7993 43.2608 46.7639 42.1004 44.3026 39.4671L42.7281 37.7793V28.8012L42.732 19.8231L43.7947 19.0222C47.2367 16.428 48.6432 15.3107 48.7643 15.0762C48.8893 14.8379 48.9127 13.9198 48.8854 10.3293C48.8619 6.95375 48.8307 5.94186 48.7486 5.63321C48.7018 5.46912 48.4752 5.21908 48.3072 5.15657C48.0767 5.07062 47.1468 5.03545 44.4432 5.01201C41.2864 4.98466 40.4386 5.01201 40.1222 5.15266C39.794 5.29722 39.6572 5.48475 39.54 5.94186C39.4892 6.1333 39.4736 6.46929 39.458 7.489L39.4384 8.7861L37.3014 8.77828L35.1682 8.76656L35.1252 7.30147C35.0979 6.49664 35.0627 5.77777 35.0393 5.71135C34.9338 5.38317 34.6994 5.22299 34.1836 5.12922C33.75 5.05108 31.6793 5.00029 28.7413 5.00029C26.2682 4.99638 25.0649 5.03155 24.7836 5.11359C24.5765 5.1761 24.3499 5.39098 24.2483 5.62931C24.096 5.98484 24.053 6.35599 24.0257 7.6023L24.0022 8.7861H21.8847H19.7671L19.7437 8.30945C19.728 8.0516 19.7163 7.57105 19.7163 7.24677C19.7124 6.48492 19.6577 5.7934 19.5874 5.62149C19.4702 5.34801 19.228 5.19954 18.7591 5.11359C18.6302 5.09015 18.0324 5.05499 17.4308 5.03545C16.1923 4.99638 12.3127 4.99638 11.6251 5.03545Z" fill="#C0C0C0"/>
</svg>
