<svg width="60" height="60" viewBox="0 0 60 60" fill="none" xmlns="http://www.w3.org/2000/svg">
<path d="M29.2307 5.09881C28.9391 5.17272 28.6189 5.31232 27.7319 5.7681C26.4508 6.42507 24.7879 7.20933 24.057 7.50086C23.786 7.61173 23.3425 7.7965 23.0715 7.91147C22.082 8.3344 20.2137 8.99548 19.0065 9.34449C18.5877 9.46357 17.0397 9.8208 16.4197 9.93988C15.8079 10.059 13.2991 10.486 13.0527 10.5147C12.8187 10.5394 11.595 10.7365 11.205 10.8104C10.24 10.9951 9.97314 11.0937 9.58306 11.414C9.37776 11.5782 9.2053 11.9026 9.10676 12.3132L9 12.7361L9.02874 14.1732C9.05338 15.6473 9.08623 16.5383 9.19299 18.8747C9.22583 19.6097 9.271 20.6609 9.29564 21.2152C9.36955 22.911 9.58717 25.6456 9.71035 26.3478C9.75552 26.6065 9.813 26.9308 9.83353 27.0663C10.1374 28.9018 11.1105 32.7204 11.7757 34.6626C12.0467 35.4674 12.4861 36.6007 12.8967 37.5574C13.5783 39.1587 15.0934 41.8236 16.3294 43.5933C17.4667 45.2193 18.1483 46.1268 18.7643 46.8371C19.4007 47.568 20.6818 48.8819 21.2854 49.4198C24.2377 52.0518 24.7673 52.4871 25.7569 53.103C26.0402 53.2796 26.5535 53.6039 26.8902 53.8216C27.7771 54.3923 28.4094 54.6962 29.05 54.8645L29.5756 55L30.019 54.885C30.4789 54.7701 31.5465 54.3225 31.916 54.0926C32.9302 53.4643 33.9691 52.795 34.2442 52.5979C34.6876 52.2818 35.632 51.5098 36.5189 50.7379C36.9131 50.393 37.4059 49.9701 37.6071 49.8017C38.3297 49.1899 39.9598 47.531 40.896 46.447C41.631 45.5971 43.5855 42.8542 44.2466 41.7456C45.1622 40.2058 45.8028 39.0766 46.0574 38.5428C46.624 37.3521 47.0757 36.227 47.864 34.0672C48.25 33.0037 48.7345 31.1396 49.371 28.2776C49.8226 26.2246 49.9499 25.1981 50.1511 21.8516C50.1717 21.4656 50.2127 20.8744 50.2333 20.5377C50.2538 20.1969 50.3113 19.1005 50.3564 18.0946C50.4016 17.0886 50.4591 15.8896 50.4796 15.4256C50.5043 14.9616 50.5207 14.1609 50.5207 13.6477C50.5207 12.8388 50.5084 12.6622 50.4345 12.3748C50.3277 11.9477 50.1388 11.6603 49.8062 11.4263C49.5722 11.2579 49.5024 11.2374 48.714 11.0608C47.4863 10.7857 47.281 10.7447 45.6139 10.4778C41.7501 9.85365 39.348 9.16793 36.0262 7.73491C34.4536 7.05741 31.9489 5.85022 31.1318 5.37802C30.7828 5.17682 30.1299 4.99205 29.7932 5.00026C29.6864 5.00437 29.436 5.04543 29.2307 5.09881Z" fill="#C0C0C0"/>
</svg>
