<svg width="60" height="60" viewBox="0 0 60 60" fill="none" xmlns="http://www.w3.org/2000/svg">
<path d="M29.4716 5.06004C28.6276 5.25592 27.9165 5.88525 27.5257 6.78131C27.4476 6.96052 27.4398 7.04388 27.4398 7.74822C27.4398 8.64011 27.4671 8.76931 27.768 9.25694C28.1157 9.81958 28.5065 10.1613 29.1239 10.4447C29.3896 10.5656 29.4755 10.624 29.4833 10.6948C29.499 10.799 29.1903 12.7245 28.2017 18.7719C26.9123 26.6238 25.8416 33.0671 25.7908 33.2339C25.7752 33.2922 25.74 33.238 25.6541 33.0046C25.5408 32.6837 24.6577 30.0247 24.2943 28.8994C24.1849 28.5535 24.0247 28.0617 23.9387 27.8033C23.7903 27.3532 23.6418 26.8906 23.3214 25.907C23.2354 25.6528 23.0986 25.2235 23.0127 24.9609C22.8173 24.3733 22.3015 22.7854 21.8053 21.2516C21.6021 20.6223 21.352 19.843 21.2465 19.522C21.141 19.2011 20.8871 18.4176 20.6839 17.7799C20.4768 17.1464 20.1408 16.1045 19.9337 15.4668C19.7305 14.8334 19.4726 14.0415 19.3671 13.7081C19.2577 13.3746 19.1444 13.0287 19.1131 12.9412C19.0818 12.8537 19.0701 12.7662 19.0858 12.7495C19.1014 12.7328 19.2577 12.6203 19.4296 12.4994C20.0353 12.0702 20.5393 11.4367 20.6839 10.9282C20.7698 10.6281 20.762 9.43615 20.6761 9.15274C20.551 8.75681 20.2228 8.24835 19.8633 7.91493C19.4921 7.56484 18.8748 7.30227 18.3355 7.2606C17.5072 7.19808 16.5967 7.63986 16.0966 8.34837C15.6902 8.91935 15.5808 9.27778 15.5808 10.0155C15.5808 10.7948 15.6824 11.1407 16.0614 11.6909C16.3975 12.1785 16.8781 12.5369 17.4759 12.7495C17.6752 12.8203 17.8706 12.9162 17.9057 12.9579C17.9721 13.0371 17.9721 13.1246 17.8901 14.7792C17.8041 16.5171 17.2532 27.1365 17.1047 29.8997C17.0617 30.6999 16.9914 32.0502 16.9445 32.9004C16.9015 33.7465 16.8507 34.4758 16.839 34.5175C16.8195 34.5717 16.2959 33.4631 15.0729 30.7874C9.86821 19.3803 8.93825 17.284 8.93825 16.9631C8.93825 16.9089 8.99686 16.838 9.10627 16.7672C9.41104 16.5588 9.74708 16.1462 9.93463 15.7336C10.3332 14.875 10.3176 14.0331 9.88384 13.1538C9.69628 12.7703 9.46575 12.5036 9.0711 12.2244C8.52406 11.8368 8.44982 11.8159 7.60973 11.8118H6.88686L6.55474 11.9826C6.1679 12.1827 5.80061 12.4661 5.60915 12.7161C5.10118 13.3788 4.88237 14.3499 5.06211 15.1168C5.17933 15.6002 5.35517 15.9586 5.64431 16.2921C6.10539 16.8255 6.67196 17.1131 7.51205 17.2423L7.97703 17.3131L9.07891 26.7114C9.68456 31.8793 10.2042 36.293 10.2277 36.5139L10.2746 36.9181L11.2163 38.1393C13.6037 41.2401 14.1468 41.9902 14.3969 42.5487C14.7759 43.3948 15.9559 46.2913 16.1826 46.9332L16.2802 47.2041L16.0497 47.8042C15.9247 48.1335 15.5847 49.0004 15.2917 49.7297C14.729 51.1342 14.3305 52.2095 14.3305 52.3179C14.3305 52.5513 16.1474 53.4973 17.515 53.9725C18.7575 54.4059 20.3049 54.7268 22.0476 54.9102C23.3096 55.0436 36.1611 55.0227 38.0679 54.8852C40.1974 54.731 42.2683 54.1683 44.3392 53.1889C45.1832 52.793 45.6678 52.4721 45.6678 52.3179C45.6678 52.2095 45.2692 51.1384 44.7065 49.7297C44.4135 49.0004 44.0735 48.1335 43.9485 47.8042L43.718 47.2041L43.8157 46.9332C44.0423 46.2913 45.2223 43.3948 45.6013 42.5487C45.8514 41.9902 46.3945 41.2401 48.782 38.1393L49.7236 36.9181L49.7705 36.5139C49.794 36.293 50.3137 31.8793 50.9193 26.7114L52.0212 17.3131L52.4862 17.2423C52.7441 17.2006 53.0879 17.1214 53.2481 17.0589C54.3539 16.6505 55.069 15.5627 54.9947 14.3957C54.9517 13.7748 54.7329 13.1663 54.3891 12.7161C54.1976 12.4661 53.8303 12.1827 53.4435 11.9826L53.1114 11.8118H52.3885C51.7438 11.8159 51.6422 11.8243 51.4624 11.9034C51.1616 12.0326 50.6262 12.4244 50.4231 12.662C49.919 13.2621 49.6689 14.254 49.8252 15.0417C49.9151 15.5044 50.1886 16.0587 50.4817 16.3837C50.6184 16.5338 50.8021 16.7047 50.8959 16.7672C51.0014 16.838 51.06 16.9089 51.06 16.9631C51.06 17.284 50.13 19.3803 44.9254 30.7874C43.7023 33.4631 43.1788 34.5717 43.1592 34.5175C43.1475 34.4758 43.0967 33.7465 43.0537 32.9004C43.0068 32.0502 42.9365 30.6999 42.8935 29.8997C42.745 27.1365 42.1941 16.5171 42.1081 14.7792C42.0261 13.1246 42.0261 13.0371 42.0925 12.9579C42.1277 12.9162 42.323 12.8203 42.5223 12.7495C43.1201 12.5369 43.6008 12.1785 43.9368 11.6909C44.3158 11.1407 44.4174 10.7948 44.4174 10.0155C44.4174 9.46116 44.3627 9.15691 44.1986 8.84016C43.886 8.22751 43.4992 7.82324 42.9599 7.53983C41.7135 6.89384 40.2404 7.39396 39.5175 8.7068C39.287 9.12357 39.2557 9.29028 39.2557 10.0446C39.2557 10.8407 39.287 10.9865 39.5449 11.4283C39.7598 11.7951 40.1466 12.1994 40.5686 12.4994C40.7405 12.6203 40.8968 12.7328 40.9125 12.7495C40.9281 12.7662 40.9164 12.8537 40.8851 12.9412C40.8539 13.0287 40.7405 13.3746 40.6311 13.7081C40.5256 14.0415 40.2677 14.8334 40.0646 15.4668C39.8575 16.1045 39.5214 17.1464 39.3143 17.7799C39.1112 18.4176 38.8572 19.2011 38.7517 19.522C38.6462 19.843 38.3961 20.6223 38.1929 21.2516C37.7045 22.7604 37.1809 24.3691 36.9894 24.9484C36.9074 25.2068 36.7667 25.6361 36.6808 25.8987C36.5948 26.1612 36.4541 26.5947 36.3682 26.8572C36.2822 27.1198 36.1415 27.5491 36.0595 27.8033C35.9735 28.0617 35.8133 28.5535 35.7039 28.8994C35.3405 30.0247 34.4574 32.6837 34.3441 33.0046C34.2582 33.238 34.223 33.2922 34.2074 33.2339C34.1566 33.0671 33.086 26.6238 31.7965 18.7719C30.8079 12.7245 30.4993 10.799 30.5149 10.6948C30.5227 10.624 30.6087 10.5656 30.8744 10.4447C31.4917 10.1613 31.8825 9.81958 32.2302 9.25694C32.5311 8.76931 32.5585 8.64011 32.5585 7.74822C32.5585 6.89384 32.5506 6.85633 32.2459 6.34787C31.6402 5.33928 30.5149 4.81414 29.4716 5.06004Z" fill="#C0C0C0"/>
</svg>
