<svg width="60" height="60" viewBox="0 0 60 60" fill="none" xmlns="http://www.w3.org/2000/svg">
<path d="M50.7621 5.05327C50.5208 5.15485 50.2636 5.35801 49.7453 5.85026C49.4604 6.11983 49.0648 6.48316 48.8709 6.65897C47.5415 7.83491 45.7176 9.22183 45.6266 9.12806C45.6147 9.11634 45.6661 8.97179 45.7413 8.81161C45.9194 8.44438 46.0183 7.8818 45.9906 7.43642C45.9787 7.26452 45.9589 7.09262 45.9431 7.05356C45.8758 6.88947 45.7413 7.01449 45.4485 7.51065C44.8986 8.45219 44.4119 8.94054 42.2042 10.7338C38.3704 13.8475 37.5118 14.8203 37.1913 16.3986C37.1359 16.6643 37.1201 16.9456 37.1201 17.7504C37.1201 18.9693 37.1399 19.0787 37.4287 19.4186C37.8442 19.9147 38.1171 20.4929 38.1567 20.9774C38.1805 21.2274 38.1725 21.2509 37.9826 21.6415C37.8718 21.8642 37.7452 22.0869 37.6978 22.1338C37.3931 22.4502 36.495 22.5948 36.2141 22.376C36.1547 22.3291 36.1072 22.2432 36.0914 22.1455C36.0123 21.6806 35.4109 21.2235 34.2912 20.7742C33.852 20.5984 33.5395 20.4343 33.3891 20.2976C33.2942 20.2077 33.1438 19.7858 33.1438 19.5983C33.1438 19.4342 33.2863 19.3131 33.5197 19.2818C33.8718 19.231 34.6077 18.8052 34.6077 18.645C34.6077 18.5825 34.5326 18.563 34.1369 18.5317C33.6819 18.4966 33.4643 18.352 33.3456 18.0082C33.2665 17.7738 33.2902 17.6175 33.405 17.5667C33.4801 17.5316 33.5751 17.3831 33.7769 16.9729C34.1646 16.1837 34.5207 15.7774 34.8293 15.7774C34.9005 15.7774 34.9717 15.7579 34.9876 15.7345C35.0627 15.6133 35.0746 15.3321 35.039 14.496C34.9955 13.3435 35.0232 13.2029 35.2803 13.1989C35.3357 13.1989 35.4228 13.1716 35.4742 13.1364C35.5573 13.0778 35.5652 13.0466 35.5454 12.8903C35.5138 12.6364 35.2645 11.8863 35.0627 11.4409C34.9717 11.2377 34.7779 10.8666 34.6315 10.6205C34.4851 10.3743 34.3743 10.1438 34.3783 10.1126C34.3862 10.0735 34.4653 10.0462 34.6354 10.0266C34.9282 9.99537 35.0944 9.92505 35.1142 9.82738C35.134 9.7258 35.0548 9.65158 34.8689 9.60079C34.2437 9.4328 33.5949 9.17104 32.5029 8.65144C30.8016 7.84273 29.6305 7.42861 28.3683 7.1942C28.127 7.15123 27.7947 7.12778 27.2882 7.12778C26.6354 7.12388 26.5207 7.1356 26.22 7.21764C25.1082 7.52237 24.3604 8.32326 24.3604 9.21401C24.3604 9.4953 24.4198 9.69064 24.5424 9.8391C24.7125 10.0383 24.8945 9.99147 25.1834 9.67502C25.3614 9.47968 25.4999 9.40935 25.7135 9.40935C25.9826 9.40935 26.1646 9.55391 26.5958 10.1126C27.0904 10.7533 27.6641 11.2065 27.9885 11.2065C28.1389 11.2065 28.4673 11.3628 28.6453 11.519C28.9025 11.7417 28.8748 11.7417 28.0281 11.5933C27.312 11.4643 26.7462 11.2495 26.2793 10.933C26.0261 10.7611 25.6146 10.5775 25.5751 10.6166C25.4841 10.7064 25.8639 11.1518 26.2833 11.4448C26.6117 11.6753 27.4109 12.1168 28.0202 12.3981C28.218 12.4918 28.5899 12.6676 28.851 12.7926L29.3258 13.0231L29.0766 13.0349C28.6651 13.0544 27.8698 12.8786 26.9796 12.57C26.5325 12.4137 26.307 12.3004 25.9351 12.0425C25.5711 11.7925 25.488 11.7652 25.3258 11.8667C25.2071 11.9371 25.0726 12.1558 25.0726 12.2769C25.0726 12.3863 25.1913 12.6286 25.3021 12.7419C25.6542 13.113 26.489 13.4802 27.486 13.7107C28.1428 13.8592 28.5543 14.0858 28.7323 14.3905C28.9776 14.8007 28.7442 15.1484 28.1033 15.3282C27.7749 15.4219 27.5612 15.3907 26.8926 15.1523C26.5523 15.0351 26.2754 14.957 26.2041 14.9648C26.0854 14.9765 26.0815 14.9844 26.0696 15.1797C26.0538 15.4297 26.1567 15.6446 26.489 16.0548C26.7857 16.426 26.849 16.5197 26.8926 16.6799C26.9717 16.9534 26.8372 17.137 26.3387 17.4222C26.1764 17.5121 25.9272 17.6683 25.7848 17.7621C25.5474 17.9223 25.5157 17.934 25.3456 17.9105C25.1319 17.8832 25.1042 17.9145 25.1398 18.141C25.1675 18.309 25.3021 18.4262 25.5157 18.4614C25.7412 18.4966 25.8006 18.5669 25.7689 18.7739C25.7135 19.1881 25.2229 20.0398 24.7402 20.5711C24.4593 20.8758 24.0795 21.1297 23.9054 21.1297C23.668 21.1297 23.5691 21.3563 23.7353 21.5087C23.8461 21.6103 23.9925 21.6415 24.4752 21.6728C24.6809 21.6845 24.855 21.7158 24.8629 21.7353C24.8708 21.7587 24.7758 21.9345 24.6492 22.126C24.5266 22.3213 24.3842 22.5831 24.3367 22.712C24.2259 23.0245 24.0993 23.0988 23.7076 23.0675C23.1616 23.0245 22.5048 22.7745 22.2318 22.5049C22.121 22.3955 22.038 22.251 21.947 22.0244C21.8362 21.7431 21.8243 21.6611 21.8362 21.4228C21.852 21.118 21.8995 21.0125 22.3901 20.1648C22.9282 19.231 23.1181 18.5903 23.0825 17.8285C23.0587 17.3206 22.9638 16.9612 22.7185 16.4494C22.3426 15.6641 21.6779 14.8164 20.6255 13.7732C19.8381 12.9958 19.126 12.3707 17.5552 11.0776C15.6759 9.53047 15.0824 8.93663 14.5839 8.09276C14.3267 7.66692 14.1764 7.47549 14.1131 7.51456C14.0498 7.55363 13.9944 7.81147 13.9944 8.06151C13.9944 8.49516 14.0933 8.98742 14.2516 9.32731C14.3307 9.50312 14.3861 9.65939 14.3742 9.67111C14.3228 9.7219 13.3772 9.04993 12.4711 8.31545C11.6442 7.64739 11.1932 7.25671 10.3861 6.51051C9.59082 5.77213 9.42069 5.63929 9.15956 5.56507C8.93008 5.49474 8.82721 5.53772 8.76786 5.73306C8.67291 6.04951 8.85491 6.76836 9.29012 7.7685C9.69368 8.70222 9.65412 8.76473 9.03691 8.13574C8.47113 7.55753 8.21395 7.4247 8.03591 7.61613C7.97261 7.68646 7.96074 7.75678 7.9647 8.09667C7.96865 8.79989 8.23374 9.67502 8.94986 11.3432C9.2466 12.0347 9.29803 12.1832 9.24264 12.1832C9.22286 12.1832 9.06856 12.0738 8.89843 11.941C8.41969 11.5659 8.05174 11.437 7.81435 11.562C7.6007 11.6753 7.52552 12.1949 7.64818 12.7653C7.82226 13.6092 8.28913 14.4999 9.08043 15.5118C9.55125 16.1095 9.66995 16.297 9.59873 16.3205C9.57103 16.3283 9.35343 16.2345 9.11208 16.1095C8.70852 15.9064 8.64521 15.8829 8.41178 15.8829C7.99239 15.879 7.73126 16.0626 7.55718 16.4807C7.44244 16.758 7.46222 17.4339 7.59279 17.7777C7.72731 18.1371 7.91326 18.4262 8.21791 18.7739C8.6096 19.2154 8.73226 19.3717 8.73226 19.4303C8.73226 19.4967 8.56608 19.5397 8.08735 19.6022C7.06657 19.735 6.75796 20.2585 7.18922 21.1219C7.39496 21.5282 7.73918 21.8759 8.50278 22.4424C9.54729 23.2121 10.4098 23.7082 11.1062 23.9309C11.1853 23.9583 11.122 23.9817 10.1368 24.2747C8.49487 24.7631 8.03987 24.9623 7.69565 25.3413C7.51761 25.5366 7.40683 25.8687 7.44244 26.1148C7.56509 27.0017 8.94195 27.7713 10.4019 27.7713C10.5997 27.7713 10.6749 27.783 10.663 27.8182C10.6512 27.8455 10.481 27.9627 10.2832 28.0838C9.29408 28.6738 8.67686 29.3692 8.43948 30.1505C8.34056 30.4787 8.35639 31.0179 8.46717 31.2913C8.64126 31.7015 8.92217 31.9672 9.38508 32.1508C9.59873 32.2329 9.68181 32.2446 10.1764 32.2446C10.7936 32.2407 10.9716 32.2016 11.7313 31.9047C11.9568 31.8187 12.1467 31.7562 12.1586 31.768C12.1705 31.7797 12.0636 31.9281 11.9212 32.1039C11.7788 32.2797 11.5414 32.5649 11.395 32.7407C10.2753 34.1081 9.90734 35.413 10.4177 36.2139C10.6907 36.6475 11.2842 36.8663 11.9766 36.7921C12.8589 36.6944 13.8401 36.1865 14.8767 35.2958C15.0231 35.1708 15.1536 35.077 15.1695 35.0887C15.1813 35.1044 15.1734 35.163 15.1497 35.2216C14.9242 35.8232 14.8727 37.3117 15.0666 37.7805C15.1536 37.9954 15.5414 38.136 15.8856 38.0813C16.305 38.0188 16.7442 37.7493 17.9905 36.796C19.7036 35.4833 19.9568 35.331 20.1032 35.5536C20.1349 35.6044 20.1824 35.8271 20.2061 36.0537C20.3644 37.4914 20.3802 37.5227 20.8629 37.5344C20.9499 37.5383 21.0528 37.5617 21.0963 37.5891C21.1636 37.6399 21.1636 37.6516 21.0686 37.8587C20.847 38.3314 20.4514 38.8275 20.1072 39.0619C19.7946 39.2729 19.5414 39.3354 18.9954 39.3354C18.3347 39.3354 18.1804 39.4175 18.2476 39.7222C18.2714 39.8316 18.5008 40.0738 18.7303 40.2301C18.8055 40.2809 18.8609 40.3512 18.8609 40.3981C18.8609 40.4996 18.4375 40.9138 18.1329 41.1091C17.2348 41.6912 15.9054 41.8436 14.8292 41.4842C14.2753 41.3005 13.9271 41.0818 13.2822 40.5153C12.6571 39.9605 12.3168 39.8042 11.7431 39.8042C11.2169 39.8042 10.8134 39.9722 10.481 40.3278C10.0419 40.8005 10.0102 41.3982 10.4019 41.8201C10.572 42.0038 10.7105 42.0546 10.8411 41.9881C10.9716 41.9178 11.0191 41.8436 11.1101 41.5506C11.2209 41.1951 11.2961 41.1326 11.5888 41.1326C11.7155 41.1326 11.8183 41.1443 11.8183 41.1638C11.8183 41.1794 11.7669 41.2537 11.7036 41.3279C11.4504 41.6365 11.391 41.9374 11.5414 42.1796C11.668 42.3827 11.8539 42.4413 12.2021 42.3827C12.578 42.3163 12.7283 42.3476 13.2347 42.5742C13.4682 42.6796 13.757 42.7851 13.8757 42.8125C14.1922 42.8828 14.1922 42.8828 14.1922 42.9414C14.1922 43.0195 13.7095 43.0859 13.1517 43.0859C12.0874 43.0859 11.1774 43.2227 10.6235 43.461C9.44443 43.9728 9.11208 44.8245 9.80051 45.5629C10.1091 45.891 10.7026 46.2114 11.0112 46.2114C11.1615 46.2114 11.1853 46.1997 11.209 46.1137C11.2407 45.9926 11.1813 45.8207 11.0152 45.5707C10.7857 45.2152 10.8529 44.9026 11.2644 44.4416C11.6047 44.0626 11.6759 44.1017 11.7115 44.6956C11.7431 45.1878 11.8223 45.4652 11.9845 45.6488C12.1467 45.8324 12.2891 45.8988 12.5186 45.8988C12.7877 45.8988 13.0488 45.7621 13.4207 45.4339C13.6304 45.2503 13.8164 45.1253 13.9746 45.0628C14.1052 45.012 14.4494 44.8596 14.7382 44.7268C15.027 44.594 15.304 44.4924 15.3515 44.5002C15.4266 44.5119 15.395 44.5432 15.1695 44.7229C14.6907 45.094 14.6987 45.2269 15.2249 45.6449C15.5533 45.9106 15.5612 45.9262 15.6126 46.8169C15.6522 47.4967 15.6719 47.6178 15.7471 47.6178C15.8223 47.6178 16.2417 47.1646 16.4197 46.8873C16.5147 46.7427 16.6611 46.4927 16.7442 46.3403C16.9222 45.9965 17.1675 45.7113 17.3099 45.6801C17.4801 45.6371 17.7175 45.5082 17.8164 45.4027C17.9944 45.2112 17.9192 44.9378 17.5948 44.5901C17.4801 44.465 17.397 44.3283 17.397 44.2619C17.397 44.172 17.7016 44.2267 18.2793 44.4143C18.6116 44.5197 19.0666 44.6526 19.2961 44.7073C20.0399 44.887 20.1824 44.9261 20.5028 45.0706C20.7877 45.1956 20.855 45.2112 21.1754 45.2112C21.4959 45.2152 21.5513 45.2034 21.7373 45.1019C21.9944 44.9612 22.1329 44.7698 22.1685 44.5002C22.1843 44.3869 22.2199 44.2658 22.2516 44.2345C22.3347 44.1525 22.6552 44.1642 22.8055 44.258C23.0033 44.3752 23.0627 44.5354 23.0943 45.0198C23.1299 45.5121 23.1497 45.5863 23.2645 45.5863C23.3792 45.5863 23.6641 45.2698 23.8105 44.9807C24.3011 43.9962 23.4939 42.9297 22.2595 42.9297C21.9865 42.9297 21.8639 42.9531 21.4049 43.1055C20.4395 43.4258 19.7234 43.4844 19.6364 43.2539C19.5928 43.1406 19.7234 43.0156 20.3129 42.6171C20.6374 42.3984 21.0765 42.1014 21.2941 41.953C22.038 41.4451 22.7976 41.1326 23.2961 41.1326C23.5493 41.1326 23.8738 41.0661 24.1151 40.9724C24.2022 40.9372 24.2615 40.9333 24.2971 40.9567C24.5622 41.1521 24.5385 41.1443 24.7244 41.0622C24.8194 41.0232 25.1517 40.7614 25.4682 40.484C25.7848 40.2066 26.0973 39.941 26.1646 39.8941L26.2872 39.8081L26.4138 40.0035C26.5563 40.2145 26.9875 40.5856 27.0983 40.5856C27.2328 40.5856 27.2566 40.4489 27.2289 39.8433C27.2051 39.3198 27.2091 39.2534 27.2803 39.0932C27.3674 38.894 27.7788 38.4603 27.85 38.4876C27.949 38.5189 27.8936 38.8549 27.6324 39.7847C27.486 40.3004 27.2605 41.1872 27.13 41.7576C26.9994 42.328 26.849 42.9687 26.7937 43.1836C26.7422 43.3985 26.5879 44.004 26.4574 44.5315C25.7214 47.4733 25.4405 49.0673 25.401 50.5323C25.3772 51.3605 25.4089 51.7629 25.5276 52.2083C25.7294 52.9662 26.034 53.3491 26.7343 53.7163C26.9084 53.8101 27.1339 53.9508 27.2328 54.0328C27.4584 54.2164 27.5375 54.236 27.8817 54.2086C28.1824 54.1852 28.4 54.0914 28.5701 53.9117C28.6374 53.8453 28.7284 53.7906 28.7759 53.7906C28.8273 53.7906 28.9895 53.9078 29.1913 54.0875C29.943 54.7634 30.2477 54.9626 30.5682 54.9939C30.9638 55.029 31.1339 54.9275 31.672 54.3063C31.8342 54.1187 31.945 54.0367 32.1666 53.9312C32.5068 53.7749 32.6651 53.7359 33.2625 53.6577C33.8402 53.5835 34.1765 53.4819 34.4732 53.2866C35.039 52.9194 35.3634 52.4349 35.5573 51.6614C35.7551 50.8722 35.6958 49.3564 35.399 47.7624C35.3793 47.6413 35.3436 47.4459 35.3239 47.3326C35.1498 46.3638 34.8016 45.1058 34.2873 43.5977C33.947 42.6093 33.6859 41.7342 33.4208 40.7028C33.3258 40.3473 33.1794 39.8394 33.0964 39.5737C32.9104 38.9955 32.8669 38.7142 32.9618 38.6361C33.0133 38.5931 33.0489 38.6009 33.1953 38.683C33.4168 38.8119 33.6859 39.101 33.7769 39.3081C33.8164 39.3979 33.8797 39.7066 33.9154 39.9957C33.9826 40.5426 34.0499 40.7809 34.1448 40.7809C34.2121 40.7809 34.402 40.5739 34.6552 40.2223C34.8966 39.8824 34.948 39.8589 35.1419 39.9879C35.4149 40.1715 35.8817 40.2926 36.6651 40.3903C36.8709 40.4137 37.1834 40.4723 37.3575 40.5153C37.8125 40.6286 38.5484 40.9919 39.1181 41.3904C39.3911 41.5818 39.8264 41.8787 40.0875 42.0506C40.6018 42.3905 40.7007 42.5156 40.5702 42.6484C40.5148 42.7031 40.4317 42.7148 40.1547 42.7109C39.7512 42.707 39.3911 42.6328 38.8531 42.4374C37.9866 42.1288 37.223 42.2538 36.7086 42.7929C36.4079 43.1055 36.3288 43.3008 36.3288 43.7306C36.3288 44.0353 36.3446 44.1134 36.4396 44.301C36.5504 44.5276 36.8155 44.8557 36.9421 44.9221C37.0766 44.9925 37.128 44.8792 37.1557 44.465C37.1953 43.9181 37.2111 43.8478 37.3535 43.6915C37.4604 43.5665 37.5039 43.547 37.7057 43.5274C37.9866 43.5001 38.0895 43.5704 38.0895 43.7814C38.0895 44.2189 38.5286 44.5705 39.0786 44.5705C39.3199 44.5705 39.4584 44.5354 39.771 44.3947C39.9886 44.301 40.4713 44.1603 41.0568 44.0236C41.2626 43.9767 41.6938 43.8478 42.0143 43.7423C42.8214 43.4766 43.0113 43.5079 42.7265 43.8595C42.3466 44.3283 42.2952 44.4807 42.4218 44.7229C42.4851 44.8479 42.6948 44.9612 42.861 44.9612C43.0153 44.9612 43.221 45.1917 43.494 45.6722C44.1073 46.7544 44.4436 47.0748 44.586 46.7232C44.6098 46.6685 44.6414 46.3481 44.6572 46.016C44.6889 45.2972 44.7087 45.2386 45.0766 44.9573C45.5633 44.5783 45.5633 44.3869 45.0885 44.0548C44.9579 43.9689 44.8551 43.879 44.8551 43.8634C44.8551 43.7735 45.0806 43.8517 45.8046 44.1877C46.0539 44.3049 46.3071 44.4143 46.3664 44.426C46.4218 44.4416 46.6315 44.594 46.8294 44.762C47.0311 44.93 47.2567 45.1019 47.3358 45.137C47.6483 45.2855 47.9847 45.262 48.1983 45.0745C48.4238 44.8792 48.499 44.6643 48.5386 44.1486C48.5742 43.6095 48.59 43.5548 48.7166 43.5548C48.8195 43.5548 49.1518 43.9181 49.2824 44.1759C49.4367 44.4729 49.4327 44.5744 49.2309 44.9378C49.0213 45.3206 48.9975 45.4847 49.1479 45.555C49.227 45.5902 49.2903 45.5824 49.4881 45.5121C50.0539 45.305 50.5168 44.9417 50.7146 44.551C50.8215 44.3361 50.8373 44.2658 50.8215 44.0744C50.77 43.3829 50.0143 42.8047 48.8511 42.5585C48.677 42.5234 48.0915 42.4765 47.4228 42.4413C46.8017 42.414 46.2478 42.3749 46.1844 42.3593C46.0104 42.3163 46.0697 42.2147 46.2913 42.1757C46.3981 42.16 46.6474 42.0741 46.8452 41.9881C47.6365 41.6404 47.5613 41.6561 48.2379 41.7381C48.772 41.8045 48.9856 41.2263 48.6098 40.7341C48.5267 40.6208 48.4555 40.5153 48.4555 40.4996C48.4555 40.4801 48.5504 40.4684 48.6691 40.4684C48.9223 40.4684 49.0687 40.5622 49.1043 40.7497C49.1439 40.9567 49.3101 41.2771 49.405 41.3279C49.5356 41.3982 49.7018 41.3396 49.8561 41.1716C50.0499 40.9607 50.1212 40.7692 50.1212 40.4723C50.1212 39.9879 49.7928 39.5347 49.2547 39.2846C49.0054 39.1674 48.9659 39.1596 48.5148 39.1596C48.0796 39.1596 48.0203 39.1713 47.8027 39.269C47.5217 39.3979 47.2844 39.5737 46.8333 39.98C46.1093 40.6325 45.4841 40.9216 44.5821 41.0114C43.7354 41.1013 42.7898 40.8669 42.1013 40.3981C41.769 40.1754 41.4129 39.8472 41.4129 39.7691C41.4129 39.7339 41.5395 39.5855 41.6938 39.4409C41.9431 39.2104 41.9708 39.1674 41.9589 39.0541C41.9391 38.8588 41.8086 38.8158 41.1162 38.7807C40.7917 38.765 40.4554 38.7377 40.3763 38.7182C40.0914 38.6439 39.8461 38.4994 39.5929 38.2415C39.3516 37.9993 38.9441 37.4484 38.8372 37.2101C38.7739 37.0734 38.8135 37.046 39.134 37.0109C39.6008 36.9562 39.6364 36.9093 39.7077 36.21C39.8303 35.0653 39.858 34.9598 40.0519 34.9598C40.2537 34.9598 40.5702 35.1669 41.7294 36.0537C42.8808 36.9367 43.2685 37.2101 43.6444 37.3977C43.9332 37.5383 43.9925 37.5539 44.2695 37.5578C44.5425 37.5578 44.586 37.5461 44.7443 37.4406C44.9579 37.2883 45.0054 37.1281 45.041 36.4444C45.0687 35.8896 45.0094 35.2841 44.8907 34.8465C44.8472 34.6902 44.8195 34.5535 44.8234 34.5457C44.8313 34.5418 44.954 34.6316 45.0925 34.7528C46.8768 36.2647 48.586 36.7061 49.4288 35.8701C49.6662 35.6357 49.773 35.3544 49.7928 34.9129C49.8284 34.0495 49.4129 33.19 48.313 31.8617C48.044 31.5375 47.8224 31.2562 47.8224 31.2405C47.8224 31.2249 47.9411 31.2562 48.0915 31.3109C49.0806 31.6937 49.6266 31.8031 50.1647 31.725C50.7938 31.6351 51.2606 31.3226 51.4901 30.8381C51.6325 30.5334 51.6642 29.9982 51.5613 29.6309C51.3279 28.8144 50.7028 28.1346 49.5316 27.4431C49.3971 27.3611 49.2943 27.279 49.3061 27.2595C49.3219 27.24 49.5039 27.2244 49.7136 27.2244C50.9322 27.2204 52.2062 26.5797 52.4911 25.8257C52.5861 25.5796 52.59 25.4272 52.5109 25.1694C52.3487 24.6302 51.6642 24.2513 49.9985 23.7864C49.1558 23.552 48.7245 23.3996 48.8986 23.3957C49.0133 23.3957 49.5752 23.1417 49.9787 22.9073C50.8966 22.376 51.8304 21.704 52.3328 21.2079C53.0648 20.4929 53.2112 19.7116 52.6889 19.3365C52.4792 19.1881 52.2537 19.1138 51.7473 19.0435C51.3121 18.981 51.2646 18.9654 51.2646 18.8872C51.2646 18.8599 51.4308 18.645 51.6365 18.4106C51.8422 18.1762 52.0678 17.8949 52.135 17.7816C52.6454 16.9495 52.6612 16.0079 52.1667 15.5587C51.8422 15.2617 51.5059 15.2696 50.861 15.5938C50.6197 15.7149 50.406 15.8048 50.3862 15.7931C50.3348 15.7618 50.4654 15.5626 50.8848 15.0234C51.7038 13.9686 52.1706 13.0817 52.3526 12.2144C52.4278 11.8745 52.4278 11.437 52.3566 11.269C52.2854 11.101 52.1152 10.9721 51.957 10.9721C51.7829 10.9721 51.4149 11.1635 51.0707 11.437C50.9085 11.5659 50.7621 11.6636 50.7423 11.6519C50.7067 11.6284 50.7977 11.394 51.1855 10.4837C51.8581 8.90928 52.1825 7.5966 52.0045 7.17467C51.866 6.8504 51.6009 6.95979 50.9718 7.5966C50.3744 8.19434 50.315 8.18653 50.588 7.53018C50.6711 7.32703 50.774 7.08481 50.8175 6.98714C51.0668 6.43237 51.2329 5.81901 51.2408 5.45958C51.2448 5.21345 51.229 5.14313 51.1696 5.07672C51.0826 4.98295 50.9441 4.97514 50.7621 5.05327Z" fill="#C0C0C0"/>
</svg>
