<svg width="60" height="60" viewBox="0 0 60 60" fill="none" xmlns="http://www.w3.org/2000/svg">
<path d="M30 0L31.4957 18.6391L37.7646 1.02222L34.3852 19.4133L45 4.01924L36.9758 20.909L51.2132 8.7868L39.091 23.0242L55.9808 15L40.5867 25.6148L58.9778 22.2354L41.3609 28.5043L60 30L41.3609 31.4957L58.9778 37.7646L40.5867 34.3852L55.9808 45L39.091 36.9758L51.2132 51.2132L36.9758 39.091L45 55.9808L34.3852 40.5867L37.7646 58.9778L31.4957 41.3609L30 60L28.5043 41.3609L22.2354 58.9778L25.6148 40.5867L15 55.9808L23.0242 39.091L8.7868 51.2132L20.909 36.9758L4.01924 45L19.4133 34.3852L1.02222 37.7646L18.6391 31.4957L0 30L18.6391 28.5043L1.02222 22.2354L19.4133 25.6148L4.01924 15L20.909 23.0242L8.7868 8.7868L23.0242 20.909L15 4.01924L25.6148 19.4133L22.2354 1.02222L28.5043 18.6391L30 0Z" fill="#C0C0C0"/>
<circle cx="30" cy="30" r="18.75" fill="#C0C0C0"/>
</svg>
