<svg width="60" height="60" viewBox="0 0 60 60" fill="none" xmlns="http://www.w3.org/2000/svg">
<path d="M30 0L32.2355 18.7612L41.4805 2.28361L36.3663 20.4722L51.2132 8.7868L39.5278 23.6337L57.7164 18.5195L41.2388 27.7645L60 30L41.2388 32.2355L57.7164 41.4805L39.5278 36.3663L51.2132 51.2132L36.3663 39.5278L41.4805 57.7164L32.2355 41.2388L30 60L27.7645 41.2388L18.5195 57.7164L23.6337 39.5278L8.7868 51.2132L20.4722 36.3663L2.28361 41.4805L18.7612 32.2355L0 30L18.7612 27.7645L2.28361 18.5195L20.4722 23.6337L8.7868 8.7868L23.6337 20.4722L18.5195 2.28361L27.7645 18.7612L30 0Z" fill="#C0C0C0"/>
<circle cx="30" cy="30" r="18.75" fill="#C0C0C0"/>
</svg>
